<mxfile host="Electron" modified="2024-01-29T03:54:52.005Z" agent="Mozilla/5.0 (X11; Linux x86_64) AppleWebKit/537.36 (KHTML, like Gecko) draw.io/23.0.2 Chrome/120.0.6099.109 Electron/28.1.0 Safari/537.36" etag="cnZdKUGcRmmzAWiP9k9e" version="23.0.2" type="device">
  <diagram name="페이지-1" id="FazmUuv_XOw_wtZI-5vd">
    <mxGraphModel dx="1434" dy="784" grid="1" gridSize="10" guides="1" tooltips="1" connect="1" arrows="1" fold="1" page="1" pageScale="1" pageWidth="827" pageHeight="1169" math="0" shadow="0">
      <root>
        <mxCell id="0" />
        <mxCell id="1" parent="0" />
        <mxCell id="Et9LwXWuMsC5IKqSnBcc-6" value="" style="rounded=0;whiteSpace=wrap;html=1;fillColor=none;dashed=1;" parent="1" vertex="1">
          <mxGeometry x="20" y="130" width="710" height="400" as="geometry" />
        </mxCell>
        <mxCell id="Et9LwXWuMsC5IKqSnBcc-1" value="변경사항" style="rounded=1;whiteSpace=wrap;html=1;fillColor=#d5e8d4;strokeColor=#82b366;" parent="1" vertex="1">
          <mxGeometry x="50" y="180" width="120" height="60" as="geometry" />
        </mxCell>
        <mxCell id="Et9LwXWuMsC5IKqSnBcc-2" value="Dev (Model)&lt;br&gt;Databse" style="shape=cylinder3;whiteSpace=wrap;html=1;boundedLbl=1;backgroundOutline=1;size=15;fillColor=#dae8fc;strokeColor=#6c8ebf;" parent="1" vertex="1">
          <mxGeometry x="280" y="165" width="110" height="150" as="geometry" />
        </mxCell>
        <mxCell id="Et9LwXWuMsC5IKqSnBcc-3" value="Prd (Production)&lt;br&gt;Databse" style="shape=cylinder3;whiteSpace=wrap;html=1;boundedLbl=1;backgroundOutline=1;size=15;fillColor=#f8cecc;strokeColor=#b85450;" parent="1" vertex="1">
          <mxGeometry x="496" y="165" width="110" height="150" as="geometry" />
        </mxCell>
        <mxCell id="Et9LwXWuMsC5IKqSnBcc-4" value="VCS&lt;br&gt;Compare" style="rhombus;whiteSpace=wrap;html=1;fillColor=#f5f5f5;fontColor=#333333;strokeColor=#666666;" parent="1" vertex="1">
          <mxGeometry x="405" y="315" width="80" height="80" as="geometry" />
        </mxCell>
        <mxCell id="Et9LwXWuMsC5IKqSnBcc-5" value="Upgrade&lt;br&gt;Script" style="shape=note;whiteSpace=wrap;html=1;backgroundOutline=1;darkOpacity=0.05;fillColor=#e1d5e7;strokeColor=#9673a6;" parent="1" vertex="1">
          <mxGeometry x="392" y="440" width="106" height="60" as="geometry" />
        </mxCell>
        <mxCell id="Et9LwXWuMsC5IKqSnBcc-7" value="" style="endArrow=classic;html=1;rounded=0;exitX=1;exitY=0.5;exitDx=0;exitDy=0;entryX=0;entryY=0;entryDx=0;entryDy=45;entryPerimeter=0;" parent="1" source="Et9LwXWuMsC5IKqSnBcc-1" target="Et9LwXWuMsC5IKqSnBcc-2" edge="1">
          <mxGeometry width="50" height="50" relative="1" as="geometry">
            <mxPoint x="200" y="360" as="sourcePoint" />
            <mxPoint x="250" y="310" as="targetPoint" />
          </mxGeometry>
        </mxCell>
        <mxCell id="Et9LwXWuMsC5IKqSnBcc-8" value="" style="endArrow=none;html=1;rounded=0;exitX=1;exitY=0;exitDx=0;exitDy=105;exitPerimeter=0;entryX=0;entryY=0;entryDx=0;entryDy=105;entryPerimeter=0;" parent="1" source="Et9LwXWuMsC5IKqSnBcc-2" target="Et9LwXWuMsC5IKqSnBcc-3" edge="1">
          <mxGeometry width="50" height="50" relative="1" as="geometry">
            <mxPoint x="390" y="430" as="sourcePoint" />
            <mxPoint x="440" y="380" as="targetPoint" />
          </mxGeometry>
        </mxCell>
        <mxCell id="Et9LwXWuMsC5IKqSnBcc-9" value="" style="endArrow=none;html=1;rounded=0;exitX=0.5;exitY=0;exitDx=0;exitDy=0;" parent="1" source="Et9LwXWuMsC5IKqSnBcc-4" edge="1">
          <mxGeometry width="50" height="50" relative="1" as="geometry">
            <mxPoint x="390" y="430" as="sourcePoint" />
            <mxPoint x="445" y="270" as="targetPoint" />
          </mxGeometry>
        </mxCell>
        <mxCell id="Et9LwXWuMsC5IKqSnBcc-10" value="" style="endArrow=none;html=1;rounded=0;entryX=0.5;entryY=1;entryDx=0;entryDy=0;exitX=0.5;exitY=0;exitDx=0;exitDy=0;exitPerimeter=0;startArrow=block;startFill=1;endFill=0;" parent="1" source="Et9LwXWuMsC5IKqSnBcc-5" target="Et9LwXWuMsC5IKqSnBcc-4" edge="1">
          <mxGeometry width="50" height="50" relative="1" as="geometry">
            <mxPoint x="390" y="430" as="sourcePoint" />
            <mxPoint x="440" y="380" as="targetPoint" />
          </mxGeometry>
        </mxCell>
        <mxCell id="Et9LwXWuMsC5IKqSnBcc-11" value="" style="endArrow=none;html=1;rounded=0;entryX=0;entryY=0;entryDx=106;entryDy=45;exitX=1;exitY=0.5;exitDx=0;exitDy=0;exitPerimeter=0;startArrow=block;startFill=1;endFill=0;entryPerimeter=0;" parent="1" source="Et9LwXWuMsC5IKqSnBcc-3" target="Et9LwXWuMsC5IKqSnBcc-5" edge="1">
          <mxGeometry width="50" height="50" relative="1" as="geometry">
            <mxPoint x="455" y="450" as="sourcePoint" />
            <mxPoint x="455" y="405" as="targetPoint" />
            <Array as="points">
              <mxPoint x="690" y="240" />
              <mxPoint x="690" y="485" />
            </Array>
          </mxGeometry>
        </mxCell>
        <mxCell id="Et9LwXWuMsC5IKqSnBcc-12" value="&lt;b&gt;1&lt;/b&gt;" style="ellipse;whiteSpace=wrap;html=1;aspect=fixed;fillColor=#fad9d5;strokeColor=#ae4132;" parent="1" vertex="1">
          <mxGeometry x="173" y="165" width="20" height="20" as="geometry" />
        </mxCell>
        <mxCell id="Et9LwXWuMsC5IKqSnBcc-13" value="변경사항 개발 RDS에 적용" style="text;html=1;strokeColor=none;fillColor=none;align=center;verticalAlign=middle;whiteSpace=wrap;rounded=0;" parent="1" vertex="1">
          <mxGeometry x="180" y="180" width="100" height="30" as="geometry" />
        </mxCell>
        <mxCell id="Et9LwXWuMsC5IKqSnBcc-14" value="&lt;b&gt;2&lt;/b&gt;" style="ellipse;whiteSpace=wrap;html=1;aspect=fixed;fillColor=#fad9d5;strokeColor=#ae4132;" parent="1" vertex="1">
          <mxGeometry x="398" y="217.5" width="20" height="20" as="geometry" />
        </mxCell>
        <mxCell id="Et9LwXWuMsC5IKqSnBcc-15" value="개발 DB와 &lt;br&gt;운영 DB와 비교" style="text;html=1;strokeColor=none;fillColor=none;align=center;verticalAlign=middle;whiteSpace=wrap;rounded=0;" parent="1" vertex="1">
          <mxGeometry x="398" y="232.5" width="100" height="30" as="geometry" />
        </mxCell>
        <mxCell id="Et9LwXWuMsC5IKqSnBcc-16" value="&lt;b&gt;3&lt;/b&gt;" style="ellipse;whiteSpace=wrap;html=1;aspect=fixed;fillColor=#fad9d5;strokeColor=#ae4132;" parent="1" vertex="1">
          <mxGeometry x="330" y="380" width="20" height="20" as="geometry" />
        </mxCell>
        <mxCell id="Et9LwXWuMsC5IKqSnBcc-17" value="스크립트 생성" style="text;html=1;strokeColor=none;fillColor=none;align=center;verticalAlign=middle;whiteSpace=wrap;rounded=0;" parent="1" vertex="1">
          <mxGeometry x="330" y="395" width="100" height="30" as="geometry" />
        </mxCell>
        <mxCell id="Et9LwXWuMsC5IKqSnBcc-18" value="&lt;b&gt;4&lt;/b&gt;" style="ellipse;whiteSpace=wrap;html=1;aspect=fixed;fillColor=#fad9d5;strokeColor=#ae4132;" parent="1" vertex="1">
          <mxGeometry x="580" y="350" width="20" height="20" as="geometry" />
        </mxCell>
        <mxCell id="Et9LwXWuMsC5IKqSnBcc-19" value="운영 DB에 적용" style="text;html=1;strokeColor=none;fillColor=none;align=center;verticalAlign=middle;whiteSpace=wrap;rounded=0;" parent="1" vertex="1">
          <mxGeometry x="580" y="365" width="100" height="30" as="geometry" />
        </mxCell>
      </root>
    </mxGraphModel>
  </diagram>
</mxfile>
